<svg xmlns="http://www.w3.org/2000/svg" width="150" height="50" viewBox="0,0,150,50"><path d="M5 11 C55 41,63 16,146 18" stroke="#333" fill="none"/><path d="M3 38 C55 9,87 23,134 33" stroke="#666" fill="none"/><path fill="#333" d="M109.68 49.59L109.69 49.60L109.66 49.57Q112.63 45.76 115.52 39.56L115.52 39.56L115.44 39.48Q112.39 33.00 106.29 24.92L106.26 24.89L106.27 24.90Q108.24 26.10 111.01 26.75L110.88 26.62L110.92 26.65Q114.49 31.37 116.93 36.58L116.93 36.59L117.04 36.69Q119.15 31.34 122.23 26.93L122.24 26.94L122.23 26.93Q124.51 26.66 126.60 25.86L126.42 25.67L126.58 25.83Q123.16 29.65 119.70 37.07L119.70 37.07L116.72 42.93L116.87 43.08Q115.37 46.15 113.62 48.78L113.70 48.85L113.66 48.82Q111.18 49.11 109.73 49.64ZM115.88 50.95L115.84 50.91L115.95 51.03Q117.65 48.12 119.09 44.84L119.14 44.88L121.87 38.56L121.77 38.46Q125.22 30.37 128.53 26.38L128.54 26.38L128.66 26.50Q127.19 27.05 125.28 27.73L125.39 27.85L126.46 26.47L126.35 26.36Q126.90 25.66 127.51 24.97L127.60 25.07L127.48 24.94Q124.91 26.10 122.05 26.56L122.06 26.56L122.02 26.52Q119.31 30.47 117.36 34.93L117.40 34.96L117.32 34.89Q115.66 31.55 113.87 28.73L113.93 28.80L113.97 28.83Q113.71 28.76 113.35 28.72L113.41 28.79L113.30 28.68Q112.93 28.63 112.74 28.63L112.88 28.77L112.73 28.62Q112.01 27.41 111.06 26.26L111.06 26.27L111.05 26.26Q107.94 25.65 105.19 23.94L105.18 23.93L105.10 23.84Q111.48 31.97 115.17 39.59L115.13 39.54L115.14 39.56Q112.97 44.62 108.90 50.26L108.95 50.31L108.88 50.24Q109.63 49.88 110.42 49.73L110.48 49.78L112.04 49.36L112.12 49.44Q111.51 50.17 110.33 51.80L110.25 51.72L110.23 51.71Q112.63 51.21 115.91 50.98Z"/><path fill="#333" d="M25.96 28.70L25.91 28.65L25.88 28.63Q23.02 28.59 22.26 30.83L22.33 30.90L22.24 30.82Q22.09 31.61 21.98 32.26L22.05 32.33L21.94 32.22Q24.49 32.38 26.13 32.38L26.17 32.42L26.23 32.48Q27.79 32.41 30.38 32.29L30.36 32.27L30.50 32.41Q30.30 30.61 28.89 29.54L28.99 29.64L28.89 29.54Q27.64 28.60 25.85 28.60ZM25.91 41.14L25.85 41.09L26.04 41.28Q21.74 41.20 20.45 39.79L20.37 39.72L20.37 39.72Q19.47 38.32 19.31 35.04L19.36 35.09L19.30 35.03Q19.32 34.82 19.24 33.45L19.27 33.47L19.23 33.44Q19.05 31.08 19.05 30.36L19.07 30.38L19.07 30.38Q19.01 28.46 19.73 27.35L19.84 27.46L19.90 27.52Q21.14 25.94 24.11 25.94L24.22 26.05L25.69 25.96L25.66 25.93Q27.76 25.98 29.29 26.29L29.36 26.36L29.39 26.39Q31.37 26.77 32.36 27.99L32.44 28.07L32.43 28.06Q32.94 29.02 33.02 31.12L33.18 31.28L33.03 31.13Q33.10 32.34 33.13 34.51L33.20 34.57L33.09 34.47Q30.17 34.44 27.39 34.44L27.43 34.48L21.91 34.55L21.87 34.52Q22.06 38.97 26.14 38.74L26.05 38.65L26.06 38.67Q29.91 38.56 31.13 36.73L31.13 36.73L31.05 36.66Q31.98 37.24 33.58 38.42L33.63 38.48L33.49 38.34Q32.25 40.86 28.10 41.13L27.96 40.99L28.12 41.15Q27.39 41.18 26.02 41.26ZM28.35 43.63L28.35 43.62L28.30 43.57Q29.27 43.40 30.49 43.48L30.54 43.53L30.65 43.64Q35.57 43.76 36.48 40.98L36.49 40.99L36.48 40.98Q34.92 39.80 33.82 39.04L33.70 38.92L33.77 38.99Q33.84 38.49 34.03 38.26L34.00 38.23L34.17 38.40Q33.39 37.89 32.02 36.94L31.97 36.88L31.91 36.83Q33.01 36.90 35.07 37.21L35.17 37.31L35.09 37.23Q35.04 36.00 34.96 35.31L34.83 35.18L34.66 33.22L34.67 33.23Q34.53 30.88 33.89 29.40L34.01 29.52L33.89 29.41Q33.67 29.11 33.10 28.50L33.03 28.43L33.04 28.44Q32.92 28.17 32.69 27.60L32.65 27.55L32.67 27.58Q30.80 25.56 25.74 25.56L25.72 25.54L24.04 25.53L23.98 25.47Q20.88 25.61 19.43 27.09L19.45 27.11L19.35 27.01Q18.63 28.08 18.67 30.13L18.77 30.23L18.79 30.26Q18.80 31.18 18.91 33.42L19.01 33.52L18.92 33.43Q19.04 35.07 19.15 37.13L19.09 37.06L19.06 37.03Q19.36 39.32 20.24 40.38L20.21 40.36L20.28 40.43Q20.49 40.64 20.68 40.75L20.64 40.71L21.01 41.42L20.93 41.34Q21.69 43.16 28.27 43.54ZM26.06 38.25L26.21 38.40L26.13 38.32Q25.01 38.46 24.10 38.00L24.14 38.04L24.05 37.95Q24.01 37.57 23.82 36.88L23.79 36.85L23.76 36.82Q25.46 36.73 27.06 36.73L27.01 36.69L27.10 36.78Q28.76 36.76 30.44 36.88L30.47 36.91L30.50 36.94Q29.18 38.24 26.17 38.36ZM27.78 30.98L27.69 30.90L27.79 31.00Q28.35 30.95 29.69 31.33L29.68 31.33L29.99 31.82L29.86 31.88L30.03 32.06Q28.66 32.17 27.75 32.13L27.64 32.02L27.58 31.97Q25.31 31.94 25.27 31.94L25.32 31.99L25.39 32.06Q26.19 31.18 27.86 31.07Z"/><path fill="#333" d="M62.15 41.04L62.11 41.00L62.12 41.01Q60.71 39.22 59.42 36.14L59.35 36.07L57.36 31.08L57.35 31.07Q55.69 35.00 55.08 36.30L55.05 36.27L55.14 36.36Q53.78 39.37 52.18 41.27L52.14 41.24L52.11 41.21Q51.66 41.14 50.89 41.25L50.93 41.28L50.98 41.33Q51.02 33.95 45.20 28.01L45.06 27.88L45.20 28.02Q43.30 26.04 41.28 24.55L41.44 24.71L41.31 24.59Q43.20 25.18 45.07 25.49L45.13 25.55L45.03 25.45Q51.09 30.40 52.54 36.65L52.58 36.69L52.50 36.61Q53.39 34.76 54.57 31.57L54.63 31.62L54.77 31.76Q56.03 27.92 56.60 26.63L56.64 26.66L58.01 26.62L58.05 26.67Q58.88 28.33 60.06 31.60L60.14 31.69L60.10 31.64Q61.26 35.13 61.91 36.54L61.91 36.54L62.00 36.63Q63.74 30.26 69.22 25.69L69.31 25.78L69.24 25.71Q70.47 25.64 73.21 25.07L73.23 25.10L73.29 25.16Q64.54 31.06 63.36 41.03L63.33 41.01L62.75 40.96L62.84 41.05Q62.31 40.82 61.97 40.86ZM65.03 43.39L67.05 43.54L67.18 43.68Q66.72 42.00 66.72 40.48L66.68 40.44L66.75 40.51Q66.83 37.35 68.24 34.12L68.28 34.16L68.22 34.10Q70.23 29.60 74.35 26.52L74.34 26.51L74.29 26.46Q72.99 26.65 71.13 26.99L71.25 27.11L71.14 27.00Q73.25 25.49 74.54 24.58L74.49 24.53L72.01 25.02L71.87 24.88Q70.79 25.25 69.46 25.40L69.50 25.44L69.41 25.35Q64.24 29.59 62.30 34.61L62.35 34.66L62.32 34.63Q61.66 32.45 60.29 28.18L60.34 28.23L60.30 28.20Q60.02 28.26 59.76 28.26L59.78 28.28L59.22 28.25L59.12 28.15Q59.02 27.87 58.22 26.12L58.28 26.18L56.19 26.14L56.09 26.04Q55.16 28.88 53.07 34.52L53.15 34.60L53.20 34.64Q51.78 30.86 48.69 27.59L48.76 27.65L48.82 27.71Q48.39 27.55 48.08 27.51L48.10 27.53L47.60 27.49L47.58 27.46Q46.66 26.59 44.87 24.99L44.88 24.99L44.92 25.03Q41.78 24.41 40.11 23.91L40.22 24.03L40.07 23.88Q50.84 31.37 50.46 41.69L50.43 41.66L50.51 41.74Q50.69 41.73 51.06 41.70L51.01 41.65L51.03 41.67Q51.37 41.61 51.56 41.61L51.69 41.74L51.55 41.60Q51.57 41.47 51.77 43.57L51.73 43.53L53.78 43.49L53.68 43.38Q56.21 40.51 58.46 34.76L58.61 34.92L58.62 34.93Q60.05 38.72 61.92 41.38L61.94 41.41L61.91 41.38Q62.17 41.29 62.44 41.31L62.43 41.31L62.55 41.43Q62.70 41.33 62.96 41.33L62.97 41.33L65.03 43.40Z"/><path fill="#444" d="M85.21 27.67L85.09 27.55L85.16 27.62Q83.00 27.70 81.72 29.21L81.74 29.22L81.67 29.16Q80.34 30.60 80.22 32.89L80.26 32.92L80.31 32.98Q80.14 35.58 80.97 36.53L81.09 36.65L80.93 36.49Q82.16 37.88 84.49 37.72L84.47 37.70L84.51 37.74Q88.98 37.27 89.36 34.26L89.44 34.34L89.43 34.33Q89.52 33.51 89.52 32.71L89.49 32.68L89.51 32.70Q89.51 30.72 88.37 29.20L88.34 29.17L88.41 29.23Q87.03 27.51 85.09 27.55ZM90.06 37.77L89.94 37.66L90.01 37.73Q88.53 39.86 84.15 40.09L84.27 40.21L84.09 40.03Q79.99 40.27 78.35 39.16L78.37 39.18L78.38 39.19Q77.35 38.20 77.20 36.49L77.16 36.45L77.16 36.45Q77.15 35.37 77.34 33.51L77.37 33.54L77.44 33.61Q77.98 29.35 79.20 27.52L79.21 27.53L79.11 27.43Q80.77 24.99 84.62 25.02L84.65 25.06L84.58 24.98Q87.15 25.09 89.44 27.41L89.34 27.31L89.37 27.34Q89.43 21.46 91.03 14.95L91.15 15.07L91.10 15.02Q92.96 14.56 94.82 13.72L94.85 13.75L94.84 13.74Q92.16 20.27 91.89 27.28L92.02 27.40L92.07 27.45Q91.67 34.51 93.80 41.09L93.86 41.15L93.79 41.09Q92.20 40.53 90.49 40.14L90.58 40.24L90.52 40.18Q90.25 38.92 90.10 37.81ZM93.01 43.16L93.02 43.18L93.14 43.29Q95.13 43.76 97.68 45.29L97.68 45.29L97.77 45.38Q94.05 38.30 93.89 30.00L93.77 29.87L93.74 29.85Q93.66 21.70 96.74 14.31L96.75 14.31L96.87 14.44Q96.14 14.84 94.69 15.49L94.59 15.39L94.66 15.47Q94.91 14.23 95.52 13.01L95.54 13.03L95.55 13.04Q93.12 14.07 90.68 14.64L90.79 14.75L90.83 14.79Q89.23 20.42 88.96 26.51L89.03 26.58L89.10 26.65Q87.03 24.65 84.51 24.54L84.55 24.57L84.58 24.60Q81.26 24.60 79.36 26.69L79.30 26.64L79.26 26.59Q77.50 28.90 77.08 33.59L77.13 33.64L77.12 33.63Q76.91 36.42 76.91 36.84L76.77 36.71L76.93 36.87Q76.87 38.48 78.01 39.55L78.04 39.57L78.05 39.58Q78.25 39.78 78.44 39.86L78.55 39.97L78.89 40.50L78.87 40.48Q79.92 41.91 82.89 42.18L82.90 42.18L82.91 42.20Q85.04 42.27 86.41 42.35L86.53 42.47L86.47 42.41Q90.60 42.55 92.32 41.21L92.47 41.37L92.39 41.28Q92.55 42.02 93.01 43.16ZM86.71 29.85L86.86 30.01L86.74 29.89Q87.87 29.99 88.71 30.49L88.72 30.50L88.57 30.35Q89.15 31.72 89.22 32.75L89.13 32.66L89.26 32.79Q89.57 37.02 84.54 37.36L84.42 37.24L84.47 37.29Q83.50 37.23 82.40 36.97L82.50 37.07L82.54 37.10Q82.34 36.53 82.27 36.00L82.15 35.88L82.26 35.99Q82.25 35.37 82.29 34.76L82.16 34.63L82.22 34.69Q82.59 31.33 85.21 30.34L85.16 30.29L85.20 30.33Q85.99 29.79 86.68 29.83Z"/></svg>